<svg width="156" height="51" viewBox="0 0 156 51" fill="none" xmlns="http://www.w3.org/2000/svg">
<path d="M12.6645 20.5026C12.2163 20.5026 11.6606 20.4937 10.9974 20.4757C10.3521 20.4757 9.68881 20.4667 9.00763 20.4488C8.34438 20.4309 7.7618 20.4129 7.25988 20.395C7.25988 19.5878 7.25988 18.6012 7.25988 17.4353C7.27781 16.2514 7.28677 14.9868 7.28677 13.6415C7.3047 12.2783 7.31366 10.924 7.31366 9.57865C7.33159 8.2154 7.34951 6.94183 7.36744 5.75795C7.38536 4.55614 7.40329 3.5337 7.42121 2.69063C6.07679 2.70857 4.76822 2.72651 3.4955 2.74445C2.22278 2.74445 1.05761 2.74445 0 2.74445L0.107554 0.0538136C1.25479 0.0538136 2.49166 0.0627822 3.81816 0.0807195C5.14466 0.0807195 6.49804 0.0896882 7.87832 0.107626C9.25859 0.107626 10.5941 0.116594 11.8847 0.134531C13.1933 0.134531 14.3943 0.143501 15.4878 0.161439C16.5812 0.161439 17.5044 0.170408 18.2573 0.188345C19.0281 0.188345 19.5479 0.197314 19.8168 0.215251L19.8975 2.47538C18.9115 2.51126 17.7822 2.54713 16.5095 2.58301C15.2368 2.60094 13.9013 2.61888 12.5031 2.63682C12.5211 3.44401 12.539 4.41264 12.5569 5.5427C12.5748 6.67277 12.5838 7.90149 12.5838 9.22887C12.6017 10.5383 12.6107 11.8657 12.6107 13.211C12.6286 14.5563 12.6376 15.8568 12.6376 17.1124C12.6555 18.3681 12.6645 19.4981 12.6645 20.5026Z" fill="#707070"/>
<path d="M23.3751 20.5833C21.9231 20.5833 20.6146 20.2515 19.4494 19.5878C18.3021 18.9062 17.3879 17.9914 16.7068 16.8434C16.0435 15.6774 15.7119 14.359 15.7119 12.8881C15.7119 11.4173 16.0346 10.1078 16.6799 8.95981C17.3431 7.8118 18.2394 6.90596 19.3687 6.24227C20.516 5.57858 21.8156 5.24673 23.2675 5.24673C24.6299 5.24673 25.8488 5.55167 26.9244 6.16155C28.0178 6.75349 28.8962 7.58758 29.5594 8.66384C30.2406 9.74009 30.6439 11.0047 30.7694 12.4576L20.0947 14.4487C20.4353 15.6146 20.9731 16.5653 21.708 17.3008C22.443 18.0183 23.2675 18.377 24.1818 18.377C25.0243 18.377 25.8578 18.09 26.6824 17.516C27.507 16.9241 28.1433 16.1707 28.5915 15.2559L30.5005 16.8703C29.6222 18.0541 28.5646 18.969 27.3277 19.6147C26.0908 20.2605 24.7733 20.5833 23.3751 20.5833ZM19.7452 11.8119C19.7452 11.9195 19.7452 12.0092 19.7452 12.0809L26.0102 11.2199C25.8847 10.0719 25.5172 9.14815 24.9077 8.44859C24.2983 7.74902 23.5544 7.39924 22.676 7.39924C21.7618 7.39924 21.0448 7.79387 20.5249 8.58312C20.0051 9.35443 19.7452 10.4307 19.7452 11.8119Z" fill="#707070"/>
<path d="M40.2104 20.5833C39.1528 20.5833 38.149 20.386 37.1989 19.9914C36.2668 19.5788 35.4332 19.0228 34.6983 18.3232C33.9813 17.6236 33.4166 16.8165 33.0043 15.9016C32.592 14.9689 32.3859 13.9913 32.3859 12.9688C32.3859 11.9105 32.592 10.924 33.0043 10.0092C33.4345 9.0764 34.0261 8.25127 34.779 7.53377C35.5318 6.81627 36.3923 6.26021 37.3602 5.86558C38.3462 5.45302 39.3948 5.24673 40.5062 5.24673C42.8365 5.24673 45.0593 6.21536 47.1745 8.15262L44.6201 10.9509C44.0465 9.89256 43.3116 9.04053 42.4153 8.39477C41.5369 7.73109 40.6675 7.39924 39.8071 7.39924C38.875 7.39924 38.1221 7.79387 37.5485 8.58312C36.9928 9.37237 36.7149 10.4307 36.7149 11.7581C36.7149 12.9599 36.9211 14.063 37.3334 15.0675C37.7636 16.072 38.3372 16.8792 39.0542 17.4891C39.7712 18.0811 40.551 18.377 41.3935 18.377C42.1285 18.377 42.8545 18.1438 43.5715 17.6775C44.3064 17.2111 44.9159 16.5833 45.3999 15.794L47.0401 17.4084C44.9249 19.525 42.6483 20.5833 40.2104 20.5833Z" fill="#707070"/>
<path d="M53.274 20.5026C52.6108 20.5026 51.8579 20.4847 51.0154 20.4488C50.1908 20.4309 49.4917 20.4129 48.9181 20.395C48.9002 19.9824 48.8822 19.3367 48.8643 18.4577C48.8643 17.5609 48.8553 16.5115 48.8374 15.3097C48.8374 14.1079 48.8285 12.8343 48.8105 11.489C48.8105 10.1257 48.8016 8.76249 48.7836 7.39924C48.7836 6.01805 48.7836 4.70861 48.7836 3.47092C48.7836 2.21529 48.7836 1.1211 48.7836 0.188345C49.178 0.170408 49.653 0.15247 50.2087 0.134531C50.7644 0.116594 51.3291 0.107626 51.9027 0.107626C52.4942 0.0896882 52.9962 0.0807195 53.4085 0.0807195C53.4085 0.923784 53.4085 1.91035 53.4085 3.04042C53.4085 4.15254 53.3995 5.32745 53.3816 6.56514C54.009 6.15258 54.6632 5.8297 55.3444 5.59652C56.0435 5.36333 56.7247 5.24673 57.3879 5.24673C59.5032 5.24673 61.0627 6.47546 62.0665 8.9329C63.0704 11.3903 63.5723 15.211 63.5723 20.395C63.1242 20.4309 62.5505 20.4578 61.8514 20.4757C61.1523 20.4937 60.1843 20.5026 58.9475 20.5026C58.9475 11.767 58.0064 7.39924 56.1242 7.39924C55.6581 7.39924 55.1741 7.63243 54.6722 8.09881C54.1882 8.56518 53.758 9.16609 53.3816 9.90153C53.3636 11.1392 53.3457 12.341 53.3278 13.507C53.3278 14.655 53.3188 15.7133 53.3009 16.6819C53.3009 17.6506 53.2919 18.4757 53.274 19.1573C53.274 19.821 53.274 20.2694 53.274 20.5026Z" fill="#707070"/>
<path d="M66.1309 20.5026C66.113 19.9286 66.095 19.1394 66.0771 18.1349C66.0592 17.1124 66.0413 15.9375 66.0233 14.6101C66.0233 13.2648 66.0144 11.8208 65.9965 10.2782C65.9965 8.71765 65.9965 7.11224 65.9965 5.46198C66.3908 5.46198 66.8748 5.47095 67.4484 5.48889C68.022 5.48889 68.5957 5.49786 69.1693 5.5158C69.7608 5.53373 70.2448 5.55167 70.6213 5.56961C70.6213 6.01805 70.6213 6.47546 70.6213 6.94183C72.145 5.81177 73.6955 5.24673 75.273 5.24673C76.7249 5.24673 77.8991 5.75796 78.7954 6.7804C79.6916 7.80283 80.337 9.43515 80.7313 11.6773C81.1436 13.9195 81.3498 16.8613 81.3498 20.5026C80.9375 20.5026 80.4445 20.4937 79.8709 20.4757C79.2973 20.4757 78.7326 20.4667 78.1769 20.4488C77.6212 20.4309 77.1372 20.4129 76.725 20.395C76.725 17.22 76.6353 14.6819 76.4561 12.7805C76.2768 10.8791 75.981 9.5069 75.5687 8.66384C75.1565 7.82077 74.6008 7.39924 73.9017 7.39924C73.328 7.39924 72.7455 7.6414 72.1539 8.12571C71.5624 8.61002 71.0515 9.24681 70.6213 10.0361C70.6033 11.5608 70.5854 13.0047 70.5675 14.368C70.5675 15.7312 70.5585 16.942 70.5406 18.0003C70.5227 19.0407 70.5048 19.8389 70.4868 20.395C69.9311 20.4129 69.25 20.4309 68.4433 20.4488C67.6546 20.4847 66.8838 20.5026 66.1309 20.5026Z" fill="#707070"/>
<path d="M83.5239 3.63236V0H88.095V3.63236H83.5239ZM83.6315 20.5026C83.6136 19.9107 83.5956 19.1125 83.5777 18.108C83.5598 17.0855 83.5419 15.9196 83.5239 14.6101C83.5239 13.2828 83.515 11.8657 83.4971 10.3589C83.4971 8.85218 83.4971 7.30955 83.4971 5.73105C84.3037 5.73105 85.1462 5.74002 86.0246 5.75795C86.9209 5.77589 87.62 5.8028 88.1219 5.83867C88.1219 7.14811 88.1129 8.52034 88.095 9.95534C88.095 11.3903 88.086 12.7895 88.0681 14.1527C88.0681 15.498 88.0591 16.7178 88.0412 17.812C88.0233 18.9062 88.0054 19.7672 87.9874 20.395C87.1629 20.4309 86.3741 20.4578 85.6212 20.4757C84.8684 20.4937 84.2051 20.5026 83.6315 20.5026Z" fill="#707070"/>
<path d="M98.1099 20.5833C97.0523 20.5833 96.0484 20.386 95.0984 19.9914C94.1662 19.5788 93.3327 19.0228 92.5977 18.3232C91.8807 17.6236 91.3161 16.8165 90.9038 15.9016C90.4915 14.9689 90.2853 13.9913 90.2853 12.9688C90.2853 11.9105 90.4915 10.924 90.9038 10.0092C91.334 9.0764 91.9255 8.25127 92.6784 7.53377C93.4313 6.81627 94.2917 6.26021 95.2597 5.86558C96.2456 5.45302 97.2943 5.24673 98.4057 5.24673C100.736 5.24673 102.959 6.21536 105.074 8.15262L102.52 10.9509C101.946 9.89256 101.211 9.04053 100.315 8.39477C99.4364 7.73109 98.567 7.39924 97.7066 7.39924C96.7744 7.39924 96.0215 7.79387 95.4479 8.58312C94.8922 9.37237 94.6144 10.4307 94.6144 11.7581C94.6144 12.9599 94.8205 14.063 95.2328 15.0675C95.663 16.072 96.2367 16.8792 96.9537 17.4891C97.6707 18.0811 98.4505 18.377 99.293 18.377C100.028 18.377 100.754 18.1438 101.471 17.6775C102.206 17.2111 102.815 16.5833 103.299 15.794L104.94 17.4084C102.824 19.525 100.548 20.5833 98.1099 20.5833Z" fill="#707070"/>
<path d="M111.308 20.5833C109.784 20.5833 108.538 20.2156 107.57 19.4802C106.62 18.7268 106.145 17.7492 106.145 16.5474C106.145 15.4532 106.54 14.4397 107.328 13.507C108.135 12.5742 109.246 11.785 110.663 11.1392C112.079 10.4755 113.701 10.0181 115.529 9.767C114.884 8.18849 113.997 7.39924 112.867 7.39924C112.186 7.39924 111.308 7.65933 110.232 8.17952C109.157 8.69971 108.063 9.38134 106.952 10.2244L106.145 7.53377C108.816 6.00908 111.344 5.24673 113.728 5.24673C115.592 5.24673 117.089 5.75796 118.218 6.7804C119.348 7.7849 120.172 9.39928 120.692 11.6235C121.212 13.8299 121.472 16.7537 121.472 20.395C121.131 20.4129 120.522 20.4309 119.643 20.4488C118.783 20.4847 117.851 20.5026 116.847 20.5026C116.847 19.9286 116.838 19.3636 116.82 18.8075C114.974 19.9914 113.136 20.5833 111.308 20.5833ZM110.582 16.359C110.582 16.9151 110.797 17.3546 111.227 17.6775C111.675 18.0003 112.267 18.1618 113.002 18.1618C114.293 18.1618 115.538 17.6057 116.739 16.4936C116.632 14.5922 116.426 12.9868 116.121 11.6773C115.422 11.8208 114.741 12.054 114.077 12.3769C113.432 12.6998 112.841 13.0854 112.303 13.5339C111.783 13.9644 111.362 14.4308 111.039 14.933C110.734 15.4173 110.582 15.8927 110.582 16.359Z" fill="#707070"/>
<path d="M128.244 0.0807195C128.209 1.10316 128.182 2.10766 128.164 3.09423C128.146 4.08079 128.137 4.99561 128.137 5.83867C128.137 8.67281 128.218 10.9957 128.379 12.8074C128.558 14.6012 128.827 15.9824 129.186 16.951C129.544 17.9017 130.019 18.5295 130.611 18.8344L128.728 20.9869C127.761 20.8793 126.945 20.5654 126.282 20.0452C125.636 19.5071 125.116 18.7089 124.722 17.6506C124.328 16.5743 124.041 15.1841 123.862 13.4801C123.7 11.776 123.62 9.69525 123.62 7.2378C123.62 6.21536 123.629 5.10323 123.647 3.90142C123.682 2.68166 123.718 1.44397 123.754 0.188345C124.274 0.152469 124.892 0.125563 125.609 0.107626C126.326 0.0896882 127.205 0.0807195 128.244 0.0807195Z" fill="#707070"/>
<path d="M136.857 0.0807195C136.821 1.10316 136.794 2.10766 136.777 3.09423C136.759 4.08079 136.75 4.99561 136.75 5.83867C136.75 8.67281 136.83 10.9957 136.992 12.8074C137.171 14.6012 137.44 15.9824 137.798 16.951C138.157 17.9017 138.632 18.5295 139.223 18.8344L137.341 20.9869C136.373 20.8793 135.558 20.5654 134.894 20.0452C134.249 19.5071 133.729 18.7089 133.335 17.6506C132.94 16.5743 132.654 15.1841 132.474 13.4801C132.313 11.776 132.232 9.69525 132.232 7.2378C132.232 6.21536 132.241 5.10323 132.259 3.90142C132.295 2.68166 132.331 1.44397 132.367 0.188345C132.887 0.152469 133.505 0.125563 134.222 0.107626C134.939 0.0896882 135.818 0.0807195 136.857 0.0807195Z" fill="#707070"/>
<path d="M140.838 24.0004L140.569 21.4712C141.519 21.4174 142.37 21.2919 143.123 21.0946C143.894 20.9152 144.593 20.6282 145.221 20.2336C144.468 18.7268 143.706 17.1214 142.935 15.4173C142.164 13.7133 141.429 12.0361 140.73 10.3858C140.049 8.71765 139.457 7.19296 138.956 5.81177C139.601 5.70414 140.408 5.59652 141.376 5.48889C142.343 5.38127 143.294 5.29158 144.226 5.21983C144.674 6.60102 145.265 8.26024 146 10.1975C146.735 12.1348 147.533 14.1707 148.393 16.3052C148.985 15.1034 149.55 13.6056 150.087 11.8119C150.625 10.0181 151.208 7.85665 151.835 5.32745L155.089 5.70414C154.21 8.9329 153.287 11.6953 152.319 13.9913C151.369 16.2694 150.329 18.1349 149.2 19.5878C148.089 21.0407 146.843 22.117 145.463 22.8166C144.082 23.5161 142.541 23.9108 140.838 24.0004Z" fill="#707070"/>
<path d="M24.2856 46.7423C23.2997 46.7423 22.278 46.6077 21.2203 46.3387C20.1807 46.0696 19.1858 45.7019 18.2357 45.2355C17.3036 44.7512 16.5149 44.2041 15.8695 43.5942C16.2818 43.0023 16.7389 42.4103 17.2408 41.8184C17.7428 41.2085 18.2985 40.6076 18.9079 40.0157C19.607 40.7691 20.3778 41.4686 21.2203 42.1144C22.0628 42.7422 22.9053 43.2534 23.7479 43.648C24.6083 44.0427 25.397 44.24 26.114 44.24C26.7594 44.24 27.333 44.0696 27.8349 43.7288C28.3547 43.37 28.6147 42.8588 28.6147 42.1951C28.6147 41.5673 28.3727 41.0112 27.8887 40.5269C27.4047 40.0247 26.7683 39.5672 25.9796 39.1547C25.2088 38.7242 24.3842 38.3027 23.5059 37.8901C22.7351 37.5313 21.9732 37.1546 21.2203 36.76C20.4675 36.3654 19.7773 35.9349 19.1499 35.4685C18.5405 35.0021 18.0475 34.4819 17.6711 33.9079C17.3125 33.316 17.1333 32.6523 17.1333 31.9169C17.1333 31.1814 17.3215 30.4639 17.698 29.7644C18.0923 29.0648 18.639 28.437 19.3381 27.8809C20.0372 27.3069 20.8618 26.8585 21.8119 26.5356C22.7799 26.1948 23.8375 26.0244 24.9847 26.0244C26.2933 26.0244 27.6108 26.2486 28.9373 26.6971C30.2817 27.1455 31.4469 27.7912 32.4328 28.6343C32.1102 29.2442 31.671 29.8451 31.1153 30.437C30.5775 31.029 30.0487 31.5312 29.5289 31.9438C28.4354 30.9034 27.3509 30.0334 26.2754 29.3339C25.1998 28.6164 24.187 28.2576 23.237 28.2576C22.5379 28.2576 22.0091 28.437 21.6506 28.7957C21.31 29.1366 21.1397 29.5043 21.1397 29.8989C21.1397 30.3294 21.3369 30.724 21.7312 31.0828C22.1256 31.4415 22.6454 31.7913 23.2907 32.1321C23.9361 32.4729 24.6441 32.8227 25.4149 33.1815C26.2216 33.5582 27.0372 33.9618 27.8618 34.3923C28.7043 34.8228 29.4751 35.316 30.1742 35.8721C30.8912 36.4102 31.4648 37.0291 31.8951 37.7286C32.3253 38.4282 32.5404 39.2264 32.5404 40.1233C32.5404 41.0202 32.3163 41.8722 31.8682 42.6794C31.438 43.4687 30.8374 44.1682 30.0666 44.7781C29.3138 45.388 28.4354 45.8723 27.4316 46.231C26.4457 46.5719 25.397 46.7423 24.2856 46.7423Z" fill="#707070"/>
<path d="M38.789 49.7558C38.1258 49.7558 37.3729 49.7378 36.5304 49.702C35.7058 49.684 35.0067 49.6661 34.4331 49.6481C34.4151 49.1459 34.3972 48.3925 34.3793 47.388C34.3793 46.3835 34.3703 45.2265 34.3524 43.9171C34.3345 42.5897 34.3166 41.2085 34.2986 39.7735C34.2986 38.3206 34.2986 36.9035 34.2986 35.5223C34.2986 34.1232 34.2986 32.8586 34.2986 31.7285C34.693 31.7106 35.168 31.6927 35.7237 31.6747C36.2794 31.6568 36.8441 31.6478 37.4177 31.6478C38.0092 31.6299 38.5112 31.6209 38.9234 31.6209C38.9234 31.9079 38.9234 32.2039 38.9234 32.5088C39.999 31.7734 41.1283 31.4057 42.3114 31.4057C43.4586 31.4057 44.4804 31.7285 45.3767 32.3743C46.273 33.02 46.981 33.908 47.5009 35.038C48.0207 36.1501 48.2806 37.4237 48.2806 38.8587C48.2806 40.3117 48.0028 41.639 47.4471 42.8409C46.9093 44.0247 46.1744 44.9754 45.2422 45.6929C44.328 46.3925 43.2973 46.7423 42.1501 46.7423C41.1104 46.7423 40.0079 46.4373 38.8428 45.8274C38.8428 46.7064 38.8338 47.4867 38.8159 48.1683C38.8159 48.8499 38.8069 49.3791 38.789 49.7558ZM41.0745 33.612C40.3037 33.612 39.5867 34.0514 38.9234 34.9304C38.9234 36.1681 38.9145 37.4596 38.8966 38.8049C38.8966 40.1323 38.8876 41.4238 38.8697 42.6794C39.1744 43.2714 39.5598 43.7377 40.0259 44.0785C40.4919 44.4194 40.9939 44.5898 41.5316 44.5898C42.3741 44.5898 43.0284 44.1593 43.4945 43.2983C43.9785 42.4373 44.2205 41.2444 44.2205 39.7197C44.2205 38.5538 44.0771 37.5134 43.7903 36.5986C43.5214 35.6658 43.1539 34.9394 42.6878 34.4192C42.2218 33.881 41.684 33.612 41.0745 33.612Z" fill="#707070"/>
<path d="M57.5466 46.7423C56.0947 46.7423 54.7861 46.4104 53.6209 45.7467C52.4737 45.0651 51.5595 44.1503 50.8783 43.0023C50.2151 41.8363 49.8834 40.5179 49.8834 39.0471C49.8834 37.5762 50.2061 36.2667 50.8514 35.1187C51.5147 33.9707 52.4109 33.0649 53.5403 32.4012C54.6875 31.7375 55.9871 31.4057 57.4391 31.4057C58.8014 31.4057 60.0204 31.7106 61.0959 32.3205C62.1894 32.9124 63.0677 33.7465 63.731 34.8228C64.4122 35.899 64.8155 37.1636 64.941 38.6166L54.2662 40.6076C54.6068 41.7736 55.1446 42.7243 55.8796 43.4597C56.6145 44.1772 57.4391 44.5359 58.3533 44.5359C59.1958 44.5359 60.0293 44.2489 60.8539 43.6749C61.6785 43.083 62.3149 42.3296 62.763 41.4148L64.6721 43.0292C63.7937 44.2131 62.7361 45.1279 61.4992 45.7736C60.2624 46.4194 58.9448 46.7423 57.5466 46.7423ZM53.9167 37.9708C53.9167 38.0784 53.9167 38.1681 53.9167 38.2399L60.1817 37.3789C60.0562 36.2309 59.6888 35.3071 59.0793 34.6075C58.4698 33.908 57.7259 33.5582 56.8475 33.5582C55.9333 33.5582 55.2163 33.9528 54.6965 34.742C54.1766 35.5134 53.9167 36.5896 53.9167 37.9708Z" fill="#707070"/>
<path d="M71.72 46.7423C70.1963 46.7423 68.9505 46.3745 67.9825 45.6391C67.0325 44.8857 66.5574 43.9081 66.5574 42.7063C66.5574 41.6121 66.9518 40.5987 67.7405 39.6659C68.5472 38.7332 69.6586 37.9439 71.0747 37.2981C72.4908 36.6345 74.1131 36.177 75.9415 35.9259C75.2962 34.3474 74.4089 33.5582 73.2795 33.5582C72.5984 33.5582 71.72 33.8183 70.6445 34.3385C69.5689 34.8586 68.4755 35.5403 67.3641 36.3833L66.5574 33.6927C69.2283 32.168 71.7559 31.4057 74.14 31.4057C76.0042 31.4057 77.501 31.9169 78.6303 32.9393C79.7597 33.9438 80.5842 35.5582 81.1041 37.7825C81.6239 39.9888 81.8838 42.9126 81.8838 46.5539C81.5433 46.5719 80.9338 46.5898 80.0554 46.6077C79.195 46.6436 78.2629 46.6615 77.259 46.6615C77.259 46.0875 77.2501 45.5225 77.2321 44.9664C75.3858 46.1503 73.5484 46.7423 71.72 46.7423ZM70.994 42.518C70.994 43.074 71.2091 43.5135 71.6393 43.8364C72.0875 44.1593 72.679 44.3207 73.414 44.3207C74.7046 44.3207 75.9505 43.7646 77.1515 42.6525C77.0439 40.7511 76.8378 39.1457 76.533 37.8363C75.8339 37.9798 75.1528 38.213 74.4895 38.5358C73.8442 38.8587 73.2526 39.2444 72.7149 39.6928C72.195 40.1233 71.7738 40.5897 71.4511 41.0919C71.1464 41.5763 70.994 42.0516 70.994 42.518Z" fill="#707070"/>
<path d="M84.1662 46.6615C84.1483 46.249 84.1304 45.5674 84.1124 44.6167C84.1124 43.666 84.1035 42.5538 84.0855 41.2803C84.0855 40.0067 84.0766 38.6614 84.0587 37.2443C84.0587 35.8093 84.0497 34.4012 84.0318 33.02C84.0318 31.6209 84.0318 30.3294 84.0318 29.1455C84.0318 27.9616 84.0318 26.993 84.0318 26.2396C84.8205 26.2396 85.6361 26.2486 86.4786 26.2666C87.3211 26.2845 88.0471 26.3114 88.6566 26.3473C88.6566 27.1365 88.6566 28.1321 88.6566 29.3339C88.6566 30.5178 88.6476 31.8093 88.6297 33.2084C88.6297 34.5896 88.6297 35.9708 88.6297 37.352C89.5977 36.5627 90.5477 35.7555 91.4799 34.9304C92.4299 34.1053 93.2993 33.325 94.0881 32.5895C94.8947 31.8362 95.558 31.1725 96.0778 30.5985L98.4709 32.2129C97.8972 32.751 97.234 33.334 96.4811 33.9618C95.7462 34.5896 94.9574 35.2264 94.1149 35.8721C94.4734 36.5179 94.8768 37.2802 95.3249 38.1591C95.791 39.0201 96.266 39.935 96.75 40.9036C97.234 41.8543 97.7001 42.805 98.1482 43.7557C98.5963 44.6884 98.9997 45.5494 99.3582 46.3387L94.1956 46.8768C93.6578 45.3342 93.0932 43.8274 92.5016 42.3565C91.928 40.8857 91.3544 39.5583 90.7808 38.3744C90.0637 38.8946 89.3378 39.3968 88.6028 39.8812C88.5849 41.4238 88.567 42.805 88.549 44.0247C88.549 45.2265 88.5401 46.0696 88.5221 46.5539C88.0561 46.5898 87.4825 46.6167 86.8013 46.6346C86.1201 46.6526 85.2418 46.6615 84.1662 46.6615Z" fill="#707070"/>
<path d="M100.995 29.7913V26.1589H105.566V29.7913H100.995ZM101.103 46.6615C101.085 46.0696 101.067 45.2714 101.049 44.2669C101.031 43.2444 101.013 42.0785 100.995 40.7691C100.995 39.4417 100.986 38.0246 100.968 36.5179C100.968 35.0111 100.968 33.4685 100.968 31.89C101.775 31.89 102.618 31.8989 103.496 31.9169C104.392 31.9348 105.091 31.9617 105.593 31.9976C105.593 33.307 105.584 34.6793 105.566 36.1143C105.566 37.5493 105.557 38.9484 105.539 40.3117C105.539 41.657 105.53 42.8767 105.512 43.9709C105.495 45.0651 105.477 45.9261 105.459 46.5539C104.634 46.5898 103.845 46.6167 103.093 46.6346C102.34 46.6526 101.676 46.6615 101.103 46.6615Z" fill="#707070"/>
<path d="M108.705 46.6615C108.687 46.0875 108.669 45.2983 108.651 44.2938C108.633 43.2714 108.615 42.0964 108.598 40.7691C108.598 39.4237 108.589 37.9798 108.571 36.4371C108.571 34.8766 108.571 33.2712 108.571 31.6209C108.965 31.6209 109.449 31.6299 110.023 31.6478C110.596 31.6478 111.17 31.6568 111.743 31.6747C112.335 31.6927 112.819 31.7106 113.195 31.7285C113.195 32.177 113.195 32.6344 113.195 33.1008C114.719 31.9707 116.27 31.4057 117.847 31.4057C119.299 31.4057 120.473 31.9169 121.37 32.9393C122.266 33.9618 122.911 35.5941 123.306 37.8363C123.718 40.0785 123.924 43.0202 123.924 46.6615C123.512 46.6615 123.019 46.6526 122.445 46.6346C121.871 46.6346 121.307 46.6257 120.751 46.6077C120.195 46.5898 119.711 46.5719 119.299 46.5539C119.299 43.379 119.21 40.8408 119.03 38.9394C118.851 37.0381 118.555 35.6658 118.143 34.8228C117.731 33.9797 117.175 33.5582 116.476 33.5582C115.902 33.5582 115.32 33.8003 114.728 34.2846C114.137 34.769 113.626 35.4057 113.195 36.195C113.178 37.7197 113.16 39.1637 113.142 40.5269C113.142 41.8902 113.133 43.1009 113.115 44.1593C113.097 45.1996 113.079 45.9979 113.061 46.5539C112.505 46.5719 111.824 46.5898 111.017 46.6077C110.229 46.6436 109.458 46.6615 108.705 46.6615Z" fill="#707070"/>
<path d="M127.927 50.1056L127.846 47.9531C129.298 47.8813 130.508 47.7288 131.476 47.4956C132.444 47.2625 133.224 46.9127 133.815 46.4463C134.407 45.962 134.855 45.2983 135.16 44.4552C133.994 45.2624 132.722 45.666 131.341 45.666C130.194 45.666 129.181 45.388 128.303 44.8319C127.425 44.2759 126.743 43.5045 126.259 42.518C125.775 41.5135 125.533 40.3565 125.533 39.0471C125.533 37.63 125.802 36.3475 126.34 35.1995C126.896 34.0335 127.64 33.1097 128.572 32.4281C129.504 31.7465 130.535 31.4057 131.664 31.4057C132.238 31.4057 132.838 31.4953 133.466 31.6747C134.111 31.8541 134.756 32.0963 135.402 32.4012C135.384 32.1859 135.366 31.9617 135.348 31.7285C136.136 31.6927 136.88 31.6658 137.579 31.6478C138.297 31.6299 139.094 31.6209 139.973 31.6209C140.026 33.1456 140.053 34.5089 140.053 35.7107C140.053 38.0426 139.946 40.0426 139.731 41.7108C139.515 43.379 139.148 44.7602 138.628 45.8544C138.108 46.9306 137.382 47.7826 136.45 48.4105C135.536 49.0383 134.38 49.4777 132.982 49.7289C131.583 49.98 129.898 50.1056 127.927 50.1056ZM129.594 38.1322C129.594 39.6569 129.898 40.8677 130.508 41.7646C131.117 42.6615 131.933 43.1099 132.955 43.1099C134.299 43.1099 135.222 42.3386 135.724 40.796C135.742 40.3834 135.751 39.935 135.751 39.4507C135.751 38.9484 135.742 38.4192 135.724 37.8632C135.706 37.3071 135.679 36.6793 135.644 35.9797C135.303 35.2981 134.837 34.751 134.245 34.3385C133.672 33.9079 133.062 33.6927 132.417 33.6927C131.539 33.6927 130.848 34.0873 130.346 34.8766C129.845 35.6658 129.594 36.7511 129.594 38.1322Z" fill="#707070"/>
</svg>
